<mxfile host="app.diagrams.net" agent="Mozilla/5.0 (Macintosh; Intel Mac OS X 10_15_7) AppleWebKit/537.36 (KHTML, like Gecko) Chrome/132.0.0.0 Safari/537.36" version="26.0.8">
  <diagram name="Page-1" id="58cdce13-f638-feb5-8d6f-7d28b1aa9fa0">
    <mxGraphModel dx="2518" dy="1244" grid="1" gridSize="10" guides="1" tooltips="1" connect="1" arrows="1" fold="1" page="1" pageScale="1" pageWidth="1100" pageHeight="850" background="none" math="0" shadow="0">
      <root>
        <mxCell id="0" />
        <mxCell id="1" parent="0" />
        <mxCell id="382b91b5511bd0f7-5" value="대기, Blocked&lt;div&gt;(=Wait, Sleep)&lt;/div&gt;" style="rounded=1;whiteSpace=wrap;html=1;arcSize=24;fillColor=#bac8d3;strokeColor=#23445d;shadow=0;comic=0;labelBackgroundColor=none;fontFamily=Comic Sans MS;fontSize=24;fontColor=default;align=center;glass=0;sketch=1;jiggle=2;fillStyle=solid;curveFitting=1;strokeWidth=5;verticalAlign=middle;dashed=1;" parent="1" vertex="1">
          <mxGeometry x="70" y="665.45" width="300" height="144.55" as="geometry" />
        </mxCell>
        <mxCell id="382b91b5511bd0f7-6" value="실행, Running&lt;div&gt;(유저 모드)&lt;/div&gt;" style="rounded=1;whiteSpace=wrap;html=1;arcSize=24;fillColor=#bac8d3;strokeColor=#23445d;shadow=0;comic=0;labelBackgroundColor=none;fontFamily=Comic Sans MS;fontSize=24;align=center;glass=0;dashed=1;strokeWidth=5;fillStyle=solid;textShadow=0;sketch=1;curveFitting=1;jiggle=2;" parent="1" vertex="1">
          <mxGeometry x="370" y="20" width="290" height="150" as="geometry" />
        </mxCell>
        <mxCell id="382b91b5511bd0f7-7" value="실행, Running&lt;div&gt;(커널 모드)&lt;/div&gt;" style="rounded=1;whiteSpace=wrap;html=1;arcSize=24;fillColor=#bac8d3;strokeColor=#23445d;shadow=0;comic=0;labelBackgroundColor=none;fontFamily=Comic Sans MS;fontSize=24;fontColor=default;align=center;glass=0;dashed=1;sketch=1;jiggle=2;fillStyle=solid;curveFitting=1;strokeWidth=5;verticalAlign=middle;" parent="1" vertex="1">
          <mxGeometry x="370" y="344.39" width="290" height="140" as="geometry" />
        </mxCell>
        <mxCell id="382b91b5511bd0f7-9" value="생성, New" style="rounded=1;whiteSpace=wrap;html=1;arcSize=24;fillColor=#bac8d3;strokeColor=#23445d;shadow=0;comic=0;labelBackgroundColor=none;fontFamily=Comic Sans MS;fontSize=24;fontColor=default;align=center;glass=0;dashed=1;sketch=1;jiggle=2;fillStyle=solid;curveFitting=1;strokeWidth=5;verticalAlign=middle;" parent="1" vertex="1">
          <mxGeometry x="1060" y="670.45" width="230" height="134.55" as="geometry" />
        </mxCell>
        <mxCell id="382b91b5511bd0f7-10" value="준비, Ready" style="rounded=1;whiteSpace=wrap;html=1;arcSize=24;fillColor=#bac8d3;strokeColor=#23445d;shadow=0;comic=0;labelBackgroundColor=none;fontFamily=Comic Sans MS;fontSize=24;fontColor=default;align=center;glass=0;dashed=1;sketch=1;jiggle=2;fillStyle=solid;curveFitting=1;strokeWidth=5;verticalAlign=middle;" parent="1" vertex="1">
          <mxGeometry x="590" y="662.73" width="270" height="150" as="geometry" />
        </mxCell>
        <mxCell id="C8-YkbHN15hisdyKUQ3D-1" value="종료, Terminated" style="rounded=1;whiteSpace=wrap;html=1;arcSize=24;fillColor=#bac8d3;strokeColor=#23445d;shadow=0;comic=0;labelBackgroundColor=none;fontFamily=Comic Sans MS;fontSize=24;fontColor=default;align=center;glass=0;dashed=1;sketch=1;jiggle=2;fillStyle=solid;curveFitting=1;strokeWidth=5;verticalAlign=middle;" vertex="1" parent="1">
          <mxGeometry x="-100" y="344.39" width="290" height="135.61" as="geometry" />
        </mxCell>
        <mxCell id="C8-YkbHN15hisdyKUQ3D-7" value="&lt;meta charset=&quot;utf-8&quot;&gt;&lt;span style=&quot;color: rgb(0, 0, 0); font-family: &amp;quot;Comic Sans MS&amp;quot;; font-size: 24px; font-style: normal; font-variant-ligatures: normal; font-variant-caps: normal; font-weight: 400; letter-spacing: normal; orphans: 2; text-align: center; text-indent: 0px; text-transform: none; widows: 2; word-spacing: 0px; -webkit-text-stroke-width: 0px; white-space: nowrap; background-color: rgb(255, 255, 255); text-decoration-thickness: initial; text-decoration-style: initial; text-decoration-color: initial; display: inline !important; float: none;&quot;&gt;Dispatch&lt;/span&gt;" style="endArrow=classic;html=1;rounded=1;entryX=0.907;entryY=1.021;entryDx=0;entryDy=0;shadow=0;glass=0;dashed=1;comic=0;sketch=1;jiggle=2;fillStyle=solid;curveFitting=1;strokeColor=#23445d;strokeWidth=5;align=center;verticalAlign=middle;arcSize=24;fontFamily=Comic Sans MS;fontSize=24;fontColor=default;labelBackgroundColor=none;fillColor=#bac8d3;exitX=0.75;exitY=0;exitDx=0;exitDy=0;entryPerimeter=0;" edge="1" parent="1" source="382b91b5511bd0f7-10" target="382b91b5511bd0f7-7">
          <mxGeometry x="0.2001" y="-30" width="50" height="50" relative="1" as="geometry">
            <mxPoint x="710" y="580" as="sourcePoint" />
            <mxPoint x="680" y="474.3899999999999" as="targetPoint" />
            <mxPoint y="-1" as="offset" />
          </mxGeometry>
        </mxCell>
        <mxCell id="C8-YkbHN15hisdyKUQ3D-9" value="Exit" style="endArrow=classic;html=1;rounded=1;entryX=1;entryY=0.5;entryDx=0;entryDy=0;exitX=0;exitY=0.5;exitDx=0;exitDy=0;shadow=0;glass=0;dashed=1;comic=0;sketch=1;jiggle=2;fillStyle=solid;curveFitting=1;strokeColor=#23445d;strokeWidth=5;align=center;verticalAlign=middle;arcSize=24;fontFamily=Comic Sans MS;fontSize=24;fontColor=default;labelBackgroundColor=default;fillColor=#bac8d3;" edge="1" parent="1" source="382b91b5511bd0f7-7" target="C8-YkbHN15hisdyKUQ3D-1">
          <mxGeometry x="-0.0026" width="50" height="50" relative="1" as="geometry">
            <mxPoint x="370" y="224.39" as="sourcePoint" />
            <mxPoint x="280" y="324.39" as="targetPoint" />
            <mxPoint as="offset" />
          </mxGeometry>
        </mxCell>
        <mxCell id="C8-YkbHN15hisdyKUQ3D-26" value="" style="edgeLabel;html=1;align=center;verticalAlign=middle;resizable=0;points=[];rounded=1;shadow=0;glass=0;dashed=1;comic=0;sketch=1;jiggle=2;fillStyle=solid;curveFitting=1;strokeColor=#23445d;strokeWidth=5;arcSize=24;fontFamily=Comic Sans MS;fontSize=24;fontColor=default;labelBackgroundColor=none;fillColor=#bac8d3;" vertex="1" connectable="0" parent="C8-YkbHN15hisdyKUQ3D-9">
          <mxGeometry x="-0.21" y="-2" relative="1" as="geometry">
            <mxPoint x="1" as="offset" />
          </mxGeometry>
        </mxCell>
        <mxCell id="C8-YkbHN15hisdyKUQ3D-13" value="" style="endArrow=classic;html=1;rounded=1;exitX=0.75;exitY=0;exitDx=0;exitDy=0;entryX=0.75;entryY=1;entryDx=0;entryDy=0;shadow=0;glass=0;dashed=1;comic=0;sketch=1;jiggle=2;fillStyle=solid;curveFitting=1;strokeColor=#23445d;strokeWidth=5;align=center;verticalAlign=middle;arcSize=24;fontFamily=Comic Sans MS;fontSize=24;fontColor=default;labelBackgroundColor=default;fillColor=#bac8d3;" edge="1" parent="1" source="382b91b5511bd0f7-7" target="382b91b5511bd0f7-6">
          <mxGeometry width="50" height="50" relative="1" as="geometry">
            <mxPoint x="440" y="130" as="sourcePoint" />
            <mxPoint x="578" y="180" as="targetPoint" />
          </mxGeometry>
        </mxCell>
        <mxCell id="C8-YkbHN15hisdyKUQ3D-14" value="복귀" style="edgeLabel;html=1;align=center;verticalAlign=middle;resizable=0;points=[];rounded=1;shadow=0;glass=0;dashed=1;comic=0;sketch=1;jiggle=2;fillStyle=solid;curveFitting=1;strokeColor=#23445d;strokeWidth=5;arcSize=24;fontFamily=Comic Sans MS;fontSize=24;fontColor=default;labelBackgroundColor=default;fillColor=#bac8d3;" vertex="1" connectable="0" parent="C8-YkbHN15hisdyKUQ3D-13">
          <mxGeometry x="-0.0604" relative="1" as="geometry">
            <mxPoint as="offset" />
          </mxGeometry>
        </mxCell>
        <mxCell id="C8-YkbHN15hisdyKUQ3D-17" value="Admitted" style="endArrow=classic;html=1;rounded=1;entryX=1;entryY=0.5;entryDx=0;entryDy=0;shadow=0;glass=0;dashed=1;comic=0;sketch=1;jiggle=2;fillStyle=solid;curveFitting=1;strokeColor=#23445d;strokeWidth=5;align=center;verticalAlign=middle;arcSize=24;fontFamily=Comic Sans MS;fontSize=24;fontColor=default;labelBackgroundColor=default;fillColor=#bac8d3;exitX=0;exitY=0.5;exitDx=0;exitDy=0;" edge="1" parent="1" source="382b91b5511bd0f7-9" target="382b91b5511bd0f7-10">
          <mxGeometry width="50" height="50" relative="1" as="geometry">
            <mxPoint x="920.0000000000002" y="851.06" as="sourcePoint" />
            <mxPoint x="810.0000000000002" y="851.06" as="targetPoint" />
          </mxGeometry>
        </mxCell>
        <mxCell id="C8-YkbHN15hisdyKUQ3D-24" value="" style="endArrow=classic;html=1;rounded=1;entryX=0.5;entryY=0;entryDx=0;entryDy=0;shadow=0;glass=0;dashed=1;comic=0;sketch=1;jiggle=2;fillStyle=solid;curveFitting=1;strokeColor=#23445d;strokeWidth=5;align=center;verticalAlign=middle;arcSize=24;fontFamily=Comic Sans MS;fontSize=24;fontColor=default;labelBackgroundColor=none;fillColor=#bac8d3;exitX=0.75;exitY=1;exitDx=0;exitDy=0;" edge="1" parent="1" source="382b91b5511bd0f7-7" target="382b91b5511bd0f7-10">
          <mxGeometry width="50" height="50" relative="1" as="geometry">
            <mxPoint x="570.0000000000001" y="477.70999999999987" as="sourcePoint" />
            <mxPoint x="625.0400000000003" y="594.3899999999996" as="targetPoint" />
          </mxGeometry>
        </mxCell>
        <mxCell id="C8-YkbHN15hisdyKUQ3D-25" value="Timer&lt;br&gt;&lt;div&gt;interrupt&lt;/div&gt;" style="edgeLabel;html=1;align=center;verticalAlign=middle;resizable=0;points=[];rounded=1;shadow=0;glass=0;dashed=1;comic=0;sketch=1;jiggle=2;fillStyle=solid;curveFitting=1;strokeColor=#23445d;strokeWidth=5;arcSize=24;fontFamily=Comic Sans MS;fontSize=24;fontColor=default;labelBackgroundColor=default;fillColor=#bac8d3;" vertex="1" connectable="0" parent="C8-YkbHN15hisdyKUQ3D-24">
          <mxGeometry x="-0.0604" relative="1" as="geometry">
            <mxPoint x="-29" y="46" as="offset" />
          </mxGeometry>
        </mxCell>
        <mxCell id="C8-YkbHN15hisdyKUQ3D-32" value="&lt;div&gt;지연 대기&lt;/div&gt;Suspended Blocked" style="rounded=1;whiteSpace=wrap;html=1;arcSize=24;fillColor=#bac8d3;strokeColor=#23445d;shadow=0;comic=0;labelBackgroundColor=none;fontFamily=Comic Sans MS;fontSize=24;fontColor=default;align=center;glass=0;sketch=1;jiggle=2;fillStyle=solid;curveFitting=1;strokeWidth=5;verticalAlign=middle;dashed=1;" vertex="1" parent="1">
          <mxGeometry x="70" y="930.56" width="300" height="148.94" as="geometry" />
        </mxCell>
        <mxCell id="C8-YkbHN15hisdyKUQ3D-33" value="" style="endArrow=classic;html=1;rounded=1;entryX=0.25;entryY=0;entryDx=0;entryDy=0;shadow=0;glass=0;dashed=1;comic=0;sketch=1;jiggle=2;fillStyle=solid;curveFitting=1;strokeColor=#23445d;strokeWidth=5;align=center;verticalAlign=middle;arcSize=24;fontFamily=Comic Sans MS;fontSize=24;fontColor=default;labelBackgroundColor=none;fillColor=#bac8d3;exitX=0.25;exitY=1;exitDx=0;exitDy=0;" edge="1" parent="1" source="382b91b5511bd0f7-5" target="C8-YkbHN15hisdyKUQ3D-32">
          <mxGeometry width="50" height="50" relative="1" as="geometry">
            <mxPoint x="240.0000000000001" y="785.4499999999999" as="sourcePoint" />
            <mxPoint x="295.0400000000003" y="902.1299999999998" as="targetPoint" />
          </mxGeometry>
        </mxCell>
        <mxCell id="C8-YkbHN15hisdyKUQ3D-34" value="Swap in" style="edgeLabel;html=1;align=center;verticalAlign=middle;resizable=0;points=[];rounded=1;shadow=0;glass=0;dashed=1;comic=0;sketch=1;jiggle=2;fillStyle=solid;curveFitting=1;strokeColor=#23445d;strokeWidth=5;arcSize=24;fontFamily=Comic Sans MS;fontSize=24;fontColor=default;labelBackgroundColor=default;fillColor=#bac8d3;" vertex="1" connectable="0" parent="C8-YkbHN15hisdyKUQ3D-33">
          <mxGeometry x="-0.0604" relative="1" as="geometry">
            <mxPoint x="-15" as="offset" />
          </mxGeometry>
        </mxCell>
        <mxCell id="C8-YkbHN15hisdyKUQ3D-35" value="" style="endArrow=classic;html=1;rounded=1;entryX=0.75;entryY=1;entryDx=0;entryDy=0;shadow=0;glass=0;dashed=1;comic=0;sketch=1;jiggle=2;fillStyle=solid;curveFitting=1;strokeColor=#23445d;strokeWidth=5;align=center;verticalAlign=middle;arcSize=24;fontFamily=Comic Sans MS;fontSize=24;fontColor=default;labelBackgroundColor=none;fillColor=#bac8d3;exitX=0.75;exitY=0;exitDx=0;exitDy=0;" edge="1" parent="1" source="C8-YkbHN15hisdyKUQ3D-32" target="382b91b5511bd0f7-5">
          <mxGeometry width="50" height="50" relative="1" as="geometry">
            <mxPoint x="238" y="795.0600000000001" as="sourcePoint" />
            <mxPoint x="238" y="891.0600000000001" as="targetPoint" />
          </mxGeometry>
        </mxCell>
        <mxCell id="C8-YkbHN15hisdyKUQ3D-36" value="Swap out" style="edgeLabel;html=1;align=center;verticalAlign=middle;resizable=0;points=[];rounded=1;shadow=0;glass=0;dashed=1;comic=0;sketch=1;jiggle=2;fillStyle=solid;curveFitting=1;strokeColor=#23445d;strokeWidth=5;arcSize=24;fontFamily=Comic Sans MS;fontSize=24;fontColor=default;labelBackgroundColor=default;fillColor=#bac8d3;" vertex="1" connectable="0" parent="C8-YkbHN15hisdyKUQ3D-35">
          <mxGeometry x="-0.0604" relative="1" as="geometry">
            <mxPoint x="15" y="-5" as="offset" />
          </mxGeometry>
        </mxCell>
        <mxCell id="C8-YkbHN15hisdyKUQ3D-37" value="&lt;div&gt;지연 준비&lt;/div&gt;Suspended Ready" style="rounded=1;whiteSpace=wrap;html=1;arcSize=24;fillColor=#bac8d3;strokeColor=#23445d;shadow=0;comic=0;labelBackgroundColor=none;fontFamily=Comic Sans MS;fontSize=24;fontColor=default;align=center;glass=0;sketch=1;jiggle=2;fillStyle=solid;curveFitting=1;strokeWidth=5;verticalAlign=middle;dashed=1;" vertex="1" parent="1">
          <mxGeometry x="590" y="930.56" width="270" height="148.94" as="geometry" />
        </mxCell>
        <mxCell id="C8-YkbHN15hisdyKUQ3D-38" value="" style="endArrow=classic;html=1;rounded=1;entryX=0.25;entryY=0;entryDx=0;entryDy=0;shadow=0;glass=0;dashed=1;comic=0;sketch=1;jiggle=2;fillStyle=solid;curveFitting=1;strokeColor=#23445d;strokeWidth=5;align=center;verticalAlign=middle;arcSize=24;fontFamily=Comic Sans MS;fontSize=24;fontColor=default;labelBackgroundColor=none;fillColor=#bac8d3;exitX=0.25;exitY=1;exitDx=0;exitDy=0;" edge="1" parent="1" target="C8-YkbHN15hisdyKUQ3D-37" source="382b91b5511bd0f7-10">
          <mxGeometry width="50" height="50" relative="1" as="geometry">
            <mxPoint x="648" y="810" as="sourcePoint" />
            <mxPoint x="735.0400000000003" y="902.1299999999998" as="targetPoint" />
          </mxGeometry>
        </mxCell>
        <mxCell id="C8-YkbHN15hisdyKUQ3D-39" value="Swap in" style="edgeLabel;html=1;align=center;verticalAlign=middle;resizable=0;points=[];rounded=1;shadow=0;glass=0;dashed=1;comic=0;sketch=1;jiggle=2;fillStyle=solid;curveFitting=1;strokeColor=#23445d;strokeWidth=5;arcSize=24;fontFamily=Comic Sans MS;fontSize=24;fontColor=default;labelBackgroundColor=default;fillColor=#bac8d3;" vertex="1" connectable="0" parent="C8-YkbHN15hisdyKUQ3D-38">
          <mxGeometry x="-0.0604" relative="1" as="geometry">
            <mxPoint x="-15" as="offset" />
          </mxGeometry>
        </mxCell>
        <mxCell id="C8-YkbHN15hisdyKUQ3D-40" value="" style="endArrow=classic;html=1;rounded=1;entryX=0.75;entryY=1;entryDx=0;entryDy=0;shadow=0;glass=0;dashed=1;comic=0;sketch=1;jiggle=2;fillStyle=solid;curveFitting=1;strokeColor=#23445d;strokeWidth=5;align=center;verticalAlign=middle;arcSize=24;fontFamily=Comic Sans MS;fontSize=24;fontColor=default;labelBackgroundColor=none;fillColor=#bac8d3;exitX=0.75;exitY=0;exitDx=0;exitDy=0;" edge="1" parent="1" source="C8-YkbHN15hisdyKUQ3D-37" target="382b91b5511bd0f7-10">
          <mxGeometry width="50" height="50" relative="1" as="geometry">
            <mxPoint x="678" y="795.0600000000001" as="sourcePoint" />
            <mxPoint x="755" y="785.0600000000001" as="targetPoint" />
          </mxGeometry>
        </mxCell>
        <mxCell id="C8-YkbHN15hisdyKUQ3D-41" value="Swap out" style="edgeLabel;html=1;align=center;verticalAlign=middle;resizable=0;points=[];rounded=1;shadow=0;glass=0;dashed=1;comic=0;sketch=1;jiggle=2;fillStyle=solid;curveFitting=1;strokeColor=#23445d;strokeWidth=5;arcSize=24;fontFamily=Comic Sans MS;fontSize=24;fontColor=default;labelBackgroundColor=default;fillColor=#bac8d3;" vertex="1" connectable="0" parent="C8-YkbHN15hisdyKUQ3D-40">
          <mxGeometry x="-0.0604" relative="1" as="geometry">
            <mxPoint x="15" y="-5" as="offset" />
          </mxGeometry>
        </mxCell>
        <mxCell id="C8-YkbHN15hisdyKUQ3D-43" value="" style="endArrow=classic;html=1;rounded=1;entryX=0;entryY=0.5;entryDx=0;entryDy=0;shadow=0;glass=0;dashed=1;comic=0;sketch=1;jiggle=2;fillStyle=solid;curveFitting=1;strokeColor=#23445d;strokeWidth=5;align=center;verticalAlign=middle;arcSize=24;fontFamily=Comic Sans MS;fontSize=24;fontColor=default;labelBackgroundColor=none;fillColor=#bac8d3;exitX=1;exitY=0.5;exitDx=0;exitDy=0;" edge="1" parent="1" source="382b91b5511bd0f7-5" target="382b91b5511bd0f7-10">
          <mxGeometry width="50" height="50" relative="1" as="geometry">
            <mxPoint x="360" y="721.0600000000001" as="sourcePoint" />
            <mxPoint x="500" y="785.45" as="targetPoint" />
          </mxGeometry>
        </mxCell>
        <mxCell id="C8-YkbHN15hisdyKUQ3D-44" value="&lt;div&gt;Wake up&lt;/div&gt;&lt;div&gt;&lt;span style=&quot;background-color: light-dark(#ffffff, var(--ge-dark-color, #121212)); color: light-dark(rgb(0, 0, 0), rgb(255, 255, 255));&quot;&gt;(I/O,&amp;nbsp;&lt;/span&gt;&lt;span style=&quot;background-color: light-dark(#ffffff, var(--ge-dark-color, #121212)); color: light-dark(rgb(0, 0, 0), rgb(255, 255, 255));&quot;&gt;Event 완료)&lt;/span&gt;&lt;/div&gt;" style="edgeLabel;html=1;align=center;verticalAlign=middle;resizable=0;points=[];rounded=1;shadow=0;glass=0;dashed=1;comic=0;sketch=1;jiggle=2;fillStyle=solid;curveFitting=1;strokeColor=#23445d;strokeWidth=5;arcSize=24;fontFamily=Comic Sans MS;fontSize=24;fontColor=default;labelBackgroundColor=default;fillColor=#bac8d3;" vertex="1" connectable="0" parent="C8-YkbHN15hisdyKUQ3D-43">
          <mxGeometry x="-0.0604" relative="1" as="geometry">
            <mxPoint x="15" y="35" as="offset" />
          </mxGeometry>
        </mxCell>
        <mxCell id="C8-YkbHN15hisdyKUQ3D-47" value="" style="endArrow=classic;html=1;rounded=1;shadow=0;glass=0;dashed=1;comic=0;sketch=1;jiggle=2;fillStyle=solid;curveFitting=1;strokeColor=#23445d;strokeWidth=5;align=center;verticalAlign=middle;arcSize=24;fontFamily=Comic Sans MS;fontSize=24;fontColor=default;labelBackgroundColor=none;fillColor=#bac8d3;exitX=0.25;exitY=1;exitDx=0;exitDy=0;entryX=0.5;entryY=0;entryDx=0;entryDy=0;" edge="1" parent="1" source="382b91b5511bd0f7-7" target="382b91b5511bd0f7-5">
          <mxGeometry width="50" height="50" relative="1" as="geometry">
            <mxPoint x="440" y="474.45" as="sourcePoint" />
            <mxPoint x="517" y="665" as="targetPoint" />
          </mxGeometry>
        </mxCell>
        <mxCell id="C8-YkbHN15hisdyKUQ3D-48" value="Block" style="edgeLabel;html=1;align=center;verticalAlign=middle;resizable=0;points=[];rounded=1;shadow=0;glass=0;dashed=1;comic=0;sketch=1;jiggle=2;fillStyle=solid;curveFitting=1;strokeColor=#23445d;strokeWidth=5;arcSize=24;fontFamily=Comic Sans MS;fontSize=24;fontColor=default;labelBackgroundColor=default;fillColor=#bac8d3;" vertex="1" connectable="0" parent="C8-YkbHN15hisdyKUQ3D-47">
          <mxGeometry x="-0.0604" relative="1" as="geometry">
            <mxPoint x="-29" y="46" as="offset" />
          </mxGeometry>
        </mxCell>
        <mxCell id="C8-YkbHN15hisdyKUQ3D-49" value="" style="endArrow=classic;html=1;rounded=1;entryX=0;entryY=0.5;entryDx=0;entryDy=0;shadow=0;glass=0;dashed=1;comic=0;sketch=1;jiggle=2;fillStyle=solid;curveFitting=1;strokeColor=#23445d;strokeWidth=5;align=center;verticalAlign=middle;arcSize=24;fontFamily=Comic Sans MS;fontSize=24;fontColor=default;labelBackgroundColor=none;fillColor=#bac8d3;exitX=1;exitY=0.5;exitDx=0;exitDy=0;" edge="1" parent="1" source="C8-YkbHN15hisdyKUQ3D-32" target="C8-YkbHN15hisdyKUQ3D-37">
          <mxGeometry width="50" height="50" relative="1" as="geometry">
            <mxPoint x="370" y="989.65" as="sourcePoint" />
            <mxPoint x="590" y="989.65" as="targetPoint" />
          </mxGeometry>
        </mxCell>
        <mxCell id="C8-YkbHN15hisdyKUQ3D-50" value="&lt;div&gt;Wake up&lt;/div&gt;&lt;div&gt;&lt;span style=&quot;background-color: light-dark(#ffffff, var(--ge-dark-color, #121212)); color: light-dark(rgb(0, 0, 0), rgb(255, 255, 255));&quot;&gt;(I/O,&amp;nbsp;&lt;/span&gt;&lt;span style=&quot;background-color: light-dark(#ffffff, var(--ge-dark-color, #121212)); color: light-dark(rgb(0, 0, 0), rgb(255, 255, 255));&quot;&gt;Event 완료)&lt;/span&gt;&lt;/div&gt;" style="edgeLabel;html=1;align=center;verticalAlign=middle;resizable=0;points=[];rounded=1;shadow=0;glass=0;dashed=1;comic=0;sketch=1;jiggle=2;fillStyle=solid;curveFitting=1;strokeColor=#23445d;strokeWidth=5;arcSize=24;fontFamily=Comic Sans MS;fontSize=24;fontColor=default;labelBackgroundColor=default;fillColor=#bac8d3;" vertex="1" connectable="0" parent="C8-YkbHN15hisdyKUQ3D-49">
          <mxGeometry x="-0.0604" relative="1" as="geometry">
            <mxPoint x="15" y="35" as="offset" />
          </mxGeometry>
        </mxCell>
        <mxCell id="C8-YkbHN15hisdyKUQ3D-53" value="system call,&lt;div&gt;interrupt,&lt;/div&gt;&lt;div&gt;trap&lt;/div&gt;" style="endArrow=classic;html=1;rounded=1;entryX=0.25;entryY=0;entryDx=0;entryDy=0;exitX=0.25;exitY=1;exitDx=0;exitDy=0;shadow=0;glass=0;dashed=1;comic=0;sketch=1;jiggle=2;fillStyle=solid;curveFitting=1;strokeColor=#23445d;strokeWidth=5;align=center;verticalAlign=middle;arcSize=24;fontFamily=Comic Sans MS;fontSize=24;fontColor=default;labelBackgroundColor=default;fillColor=#bac8d3;" edge="1" parent="1" source="382b91b5511bd0f7-6" target="382b91b5511bd0f7-7">
          <mxGeometry x="-0.0026" width="50" height="50" relative="1" as="geometry">
            <mxPoint x="350" y="130" as="sourcePoint" />
            <mxPoint x="170" y="138" as="targetPoint" />
            <mxPoint as="offset" />
          </mxGeometry>
        </mxCell>
        <mxCell id="C8-YkbHN15hisdyKUQ3D-54" value="" style="edgeLabel;html=1;align=center;verticalAlign=middle;resizable=0;points=[];rounded=1;shadow=0;glass=0;dashed=1;comic=0;sketch=1;jiggle=2;fillStyle=solid;curveFitting=1;strokeColor=#23445d;strokeWidth=5;arcSize=24;fontFamily=Comic Sans MS;fontSize=24;fontColor=default;labelBackgroundColor=none;fillColor=#bac8d3;" vertex="1" connectable="0" parent="C8-YkbHN15hisdyKUQ3D-53">
          <mxGeometry x="-0.21" y="-2" relative="1" as="geometry">
            <mxPoint x="1" as="offset" />
          </mxGeometry>
        </mxCell>
        <mxCell id="C8-YkbHN15hisdyKUQ3D-58" value="" style="endArrow=classic;html=1;rounded=1;shadow=0;glass=0;dashed=1;comic=0;sketch=1;jiggle=2;fillStyle=solid;curveFitting=1;strokeColor=#23445d;strokeWidth=5;align=center;verticalAlign=middle;arcSize=24;fontFamily=Comic Sans MS;fontSize=24;fontColor=default;labelBackgroundColor=default;fillColor=#bac8d3;exitX=0;exitY=0.5;exitDx=0;exitDy=0;" edge="1" parent="1">
          <mxGeometry width="50" height="50" relative="1" as="geometry">
            <mxPoint x="1060" y="736.82" as="sourcePoint" />
            <mxPoint x="860" y="1005" as="targetPoint" />
          </mxGeometry>
        </mxCell>
      </root>
    </mxGraphModel>
  </diagram>
</mxfile>
